<?xml version="1.0" encoding="UTF-8" standalone="no"?>
<!-- Created with Inkscape (http://www.inkscape.org/) -->

<svg
   xmlns:dc="http://purl.org/dc/elements/1.1/"
   xmlns:cc="http://creativecommons.org/ns#"
   xmlns:rdf="http://www.w3.org/1999/02/22-rdf-syntax-ns#"
   xmlns:svg="http://www.w3.org/2000/svg"
   xmlns="http://www.w3.org/2000/svg"
   xmlns:xlink="http://www.w3.org/1999/xlink"
   xmlns:sodipodi="http://sodipodi.sourceforge.net/DTD/sodipodi-0.dtd"
   xmlns:inkscape="http://www.inkscape.org/namespaces/inkscape"
   width="64px"
   height="64px"
   id="svg3012"
   version="1.1"
   inkscape:version="0.48.5 r10040"
   sodipodi:docname="New document 4">
  <defs
     id="defs3014">
    <linearGradient
       id="linearGradient3846">
      <stop
         style="stop-color:#000000;stop-opacity:1;"
         offset="0"
         id="stop3848" />
      <stop
         style="stop-color:#f2f2f2;stop-opacity:0.64406782;"
         offset="1"
         id="stop3850" />
    </linearGradient>
    <linearGradient
       id="linearGradient3822">
      <stop
         id="stop3834"
         offset="0"
         style="stop-color:#ff0000;stop-opacity:1;" />
      <stop
         style="stop-color:#ff00ff;stop-opacity:1;"
         offset="0.09455106"
         id="stop3842" />
      <stop
         style="stop-color:#0000ff;stop-opacity:1;"
         offset="0.2328895"
         id="stop3840" />
      <stop
         style="stop-color:#00ffff;stop-opacity:0.78039217;"
         offset="0.39444676"
         id="stop3838" />
      <stop
         style="stop-color:#00ff00;stop-opacity:1;"
         offset="0.56316388"
         id="stop3836" />
      <stop
         id="stop3830"
         offset="0.75233656"
         style="stop-color:#ffff00;stop-opacity:1;" />
      <stop
         style="stop-color:#ff0000;stop-opacity:1;"
         offset="1"
         id="stop3826" />
    </linearGradient>
    <linearGradient
       inkscape:collect="always"
       xlink:href="#linearGradient3822"
       id="linearGradient3828"
       x1="14.23614"
       y1="22.636786"
       x2="38.776802"
       y2="49.727695"
       gradientUnits="userSpaceOnUse" />
    <linearGradient
       inkscape:collect="always"
       xlink:href="#linearGradient3846"
       id="linearGradient3852"
       x1="41.093945"
       y1="38.045067"
       x2="36.201038"
       y2="29.499611"
       gradientUnits="userSpaceOnUse"
       gradientTransform="translate(0.18181818,1.4545455)" />
    <linearGradient
       inkscape:collect="always"
       xlink:href="#linearGradient3822"
       id="linearGradient3864"
       x1="3.2742317"
       y1="52.170334"
       x2="53.10141"
       y2="52.170334"
       gradientUnits="userSpaceOnUse" />
    <linearGradient
       inkscape:collect="always"
       xlink:href="#linearGradient3822"
       id="linearGradient3882"
       x1="-0.33722848"
       y1="52.27623"
       x2="52.5"
       y2="52.27623"
       gradientUnits="userSpaceOnUse" />
  </defs>
  <sodipodi:namedview
     id="base"
     pagecolor="#ffffff"
     bordercolor="#666666"
     borderopacity="1.0"
     inkscape:pageopacity="0.0"
     inkscape:pageshadow="2"
     inkscape:zoom="5.5"
     inkscape:cx="3.1818182"
     inkscape:cy="39.272727"
     inkscape:current-layer="layer1"
     showgrid="true"
     inkscape:document-units="px"
     inkscape:grid-bbox="true"
     inkscape:window-width="1278"
     inkscape:window-height="779"
     inkscape:window-x="0"
     inkscape:window-y="0"
     inkscape:window-maximized="0" />
  <metadata
     id="metadata3017">
    <rdf:RDF>
      <cc:Work
         rdf:about="">
        <dc:format>image/svg+xml</dc:format>
        <dc:type
           rdf:resource="http://purl.org/dc/dcmitype/StillImage" />
        <dc:title></dc:title>
      </cc:Work>
    </rdf:RDF>
  </metadata>
  <g
     id="layer1"
     inkscape:label="Layer 1"
     inkscape:groupmode="layer">
    <path
       style="fill:url(#linearGradient3828);stroke:#000000;stroke-width:1px;stroke-linecap:butt;stroke-linejoin:miter;stroke-opacity:1;fill-opacity:1"
       d="m 17.454545,21.818182 c 20.000001,-32 31.09091,-12.7272725 31.09091,-12.7272725 0,0 20.686036,22.5983355 -17.818182,34.7272725 -24.8214894,7.818839 -18.766321,-12.471422 -13.272728,-22 z"
       id="path3024"
       inkscape:connector-curvature="0"
       sodipodi:nodetypes="ccsc" />
    <path
       sodipodi:type="arc"
       style="fill:#f2f2f2;stroke:#1a1a1a;stroke-width:12.56106186000000058;stroke-miterlimit:4;stroke-dasharray:none;stroke-dashoffset:0"
       id="path3028"
       sodipodi:cx="-18.90909"
       sodipodi:cy="40"
       sodipodi:rx="32.909092"
       sodipodi:ry="34.727272"
       d="m 14.000002,40 a 32.909092,34.727272 0 1 1 -65.818184,0 32.909092,34.727272 0 1 1 65.818184,0 z"
       transform="matrix(0.10206771,-0.04076661,0.05125502,0.12832764,21.697988,25.641489)" />
    <path
       sodipodi:type="arc"
       style="fill:#f9f9f9;stroke:#1a1a1a;stroke-width:9.93994617000000069;stroke-miterlimit:4;stroke-dasharray:none;stroke-dashoffset:0"
       id="path3028-0"
       sodipodi:cx="-18.90909"
       sodipodi:cy="40"
       sodipodi:rx="32.909092"
       sodipodi:ry="34.727272"
       d="m 14.000002,40 a 32.909092,34.727272 0 1 1 -65.818184,0 32.909092,34.727272 0 1 1 65.818184,0 z"
       transform="matrix(0.12639949,-0.05048491,0.06347363,0.15891949,29.851153,14.303415)" />
    <path
       style="fill:#4d4d4d;stroke:#000000;stroke-width:1px;stroke-linecap:butt;stroke-linejoin:miter;stroke-opacity:1"
       d="m 12.545455,40.909091 c -5.6363641,-1.818182 -11.0909095,1.636364 -6.9090914,3.636364 4.1818182,2 6.9090914,-3.636364 6.9090914,-3.636364 z"
       id="path3816"
       inkscape:connector-curvature="0" />
    <path
       style="fill:#4d4d4d;stroke:#000000;stroke-width:1px;stroke-linecap:butt;stroke-linejoin:miter;stroke-opacity:1"
       d="M 12.545455,41.090909 C 6.3636364,35.090909 10.909091,28 12.181818,35.636363"
       id="path3818"
       inkscape:connector-curvature="0"
       sodipodi:nodetypes="cc" />
    <path
       style="fill:#4d4d4d;stroke:#000000;stroke-width:1px;stroke-linecap:butt;stroke-linejoin:miter;stroke-opacity:1"
       d="M 12,42.727273 C 10.363636,48 11.818182,54.545455 14.727273,51.272727 17.636364,48 13.272727,41.636364 13.272727,41.636364 z"
       id="path3820"
       inkscape:connector-curvature="0" />
    <path
       style="fill:url(#linearGradient3852);fill-opacity:1;stroke:none"
       d="m 18.545454,40.363636 c -2,4.727273 -1.454545,6.363636 7.636364,4.181818 9.090909,-2.181818 19.861906,-6.967212 24,-12.909091 C 57.272727,21.454545 34.545455,28.363636 33.636364,35.272727 32.727273,42.181818 45.818182,30 40.363636,30.727272 34.909091,31.454545 31.454545,36 25.636363,39.636363 c -5.818181,3.636364 -7.090909,0.727273 -7.090909,0.727273 z"
       id="path3844"
       inkscape:connector-curvature="0"
       sodipodi:nodetypes="csssssc" />
    <path
       style="fill:url(#linearGradient3864);stroke:none;fill-opacity:1.0"
       id="path3856"
       d="m 9.3476383,47.56702 c -1.1201905,0.886586 -2.378056,1.523287 -3.6185715,2.240988 3.8057323,-2.188095 1.8871459,-1.202829 1.1875716,-0.496609 -0.236371,0.238616 -0.2933041,0.33714 -0.4938716,0.609317 -0.4904481,0.760573 -0.6930857,1.632571 -0.8085694,2.517477 -0.04253,0.679982 0.1657716,1.298276 0.7094548,1.735586 0.1358383,0.109261 0.2902975,0.193099 0.4354462,0.289649 0.8851522,0.53581 1.8868216,0.812245 2.8742202,1.090496 1.2171554,0.348994 2.4800414,0.501303 3.7430484,0.527881 0.792882,-0.04012 1.57283,-0.251138 2.294893,-0.579879 0.16411,-0.07472 0.634805,-0.342187 0.478763,-0.251825 -0.580657,0.336253 -1.168595,0.659774 -1.752893,0.989661 0.829127,-0.543036 1.501032,-1.280396 2.227695,-1.946565 1.33802,-1.126701 2.894467,-1.988788 4.460674,-2.75237 0.812799,-0.398885 1.644392,-0.743839 2.524159,-0.959887 1.202778,-0.252173 2.433361,-0.0981 3.635677,0.07105 1.424619,0.233855 2.777709,0.750613 4.025887,1.466966 0.661296,0.383107 1.231405,0.912038 1.944958,1.204383 0.138519,0.05675 0.283191,0.09714 0.424787,0.145702 1.192816,0.299188 2.43629,0.227318 3.636953,0.01983 0.490881,-0.104563 0.969385,-0.240737 1.413423,-0.478562 0.120575,-0.06458 0.471211,-0.277852 0.35127,-0.212103 -1.975017,1.082672 -2.487255,1.576827 -1.658748,0.83508 0.499618,-0.481381 0.830387,-1.084797 1.136565,-1.69827 0.323073,-0.746509 0.779717,-1.406212 1.420984,-1.916703 0.212326,-0.169025 0.444,-0.312204 0.666,-0.468306 2.130188,-1.30372 3.475716,-2.062537 5.81852,-2.468391 2.213658,-0.383481 4.440092,-0.328496 6.675476,-0.299683 0,0 -1.643788,1.192808 -1.643788,1.192808 l 0,0 c -0.824451,8.81e-4 -1.649355,-0.02471 -2.473352,0.0026 -1.539284,0.05109 -2.856481,0.165391 -4.356161,0.47984 -0.545928,0.114468 -1.08423,0.266731 -1.614932,0.438474 -0.432905,0.140095 -1.144932,0.932684 -1.271832,0.495728 -0.131553,-0.452977 0.797518,-0.503926 1.196277,-0.755889 -0.214135,0.141085 -0.436977,0.269768 -0.642404,0.423256 -0.622996,0.465479 -1.082001,1.075095 -1.379742,1.78976 -0.302271,0.634537 -0.619743,1.267644 -1.107442,1.784192 -0.930511,0.984513 -0.215025,0.276575 -2.797962,1.806522 -0.543644,0.322016 -1.16143,0.474606 -1.777784,0.58322 -1.242529,0.16037 -2.519789,0.230337 -3.74231,-0.100345 -0.422372,-0.155444 -0.458438,-0.148831 -0.841099,-0.364007 -0.539238,-0.303222 -0.990654,-0.734691 -1.525199,-1.045922 -1.211201,-0.718656 -2.535342,-1.213131 -3.936017,-1.405041 -1.207115,-0.140445 -2.43901,-0.253994 -3.632488,0.04966 -0.86933,0.249518 -1.697237,0.609467 -2.506243,1.012802 -0.99434,0.507957 -0.582931,0.306751 1.478181,-0.892367 0.127239,-0.07402 -0.253987,0.148944 -0.379155,0.226417 -0.368161,0.227873 -0.431738,0.270038 -0.770923,0.531162 -0.117245,0.09026 -0.231297,0.184597 -0.346945,0.276896 -0.748591,0.660823 -1.421838,1.407468 -2.230079,1.998153 -1.941812,1.129099 -3.276971,2.195618 -5.499612,2.269383 C 10.022677,57.519148 8.7480636,57.334056 7.5096673,57.010281 6.5003261,56.731611 5.4806144,56.422363 4.5934026,55.849969 4.4333797,55.742883 4.2629823,55.649873 4.1133341,55.528711 3.5092222,55.039596 3.2436072,54.352472 3.2770259,53.589068 3.4083557,52.679601 3.5674783,51.774827 4.0268794,50.96276 4.174321,50.740194 4.313569,50.514302 4.4883705,50.311179 5.3352819,49.327051 6.8328824,48.827347 7.7799777,48.14863 c -3.8749748,2.249082 -1.7284685,1.095078 -0.9379684,0.414842 0,0 2.505629,-0.996452 2.505629,-0.996452 z"
       inkscape:connector-curvature="0" />
    <path
       style="fill:none;stroke:url(#linearGradient3882);stroke-width:0.1;stroke-linecap:butt;stroke-linejoin:miter;stroke-opacity:1;fill-opacity:1;stroke-miterlimit:4;stroke-dasharray:none"
       d="M 5.2727273,45.818182 C 4.9029117,46.153575 4.4024717,45.684025 4,45.818182 3.9186884,45.845286 3.8994934,45.972896 3.8181818,46 3.7031899,46.03833 3.5721385,45.9706 3.4545455,46 3.3230724,46.03287 3.2121212,46.121212 3.0909091,46.181818 2.969697,46.242428 2.8400316,46.288464 2.7272727,46.363636 2.6559577,46.411176 2.6167695,46.497911 2.5454545,46.545455 2.3199368,46.6958 2.0436995,46.758746 1.8181818,46.909091 1.7468668,46.956631 1.7076786,47.043366 1.6363636,47.090909 0.90909091,47.575758 1.5757576,46.909091 1.0909091,47.636364 0.99582248,47.778994 0.78148044,47.837377 0.72727273,48 c -0.0383306,0.114992 0.0383306,0.248644 0,0.363636 -0.0542077,0.162623 -0.30942866,0.201014 -0.36363637,0.363637 -0.0383306,0.114992 0,0.242424 0,0.363636 0,0.06061 0.0271039,0.127611 0,0.181818 -0.0383306,0.07666 -0.14348754,0.105157 -0.18181818,0.181818 -0.0276667,0.05533 0,0.463572 0,0.545455 0,0.06061 -0.042855,0.138963 0,0.181818 0.042855,0.04286 0.13896323,-0.04286 0.18181818,0 0.042855,0.04286 -0.042855,0.138963 0,0.181818 0.042855,0.04286 0.13896323,-0.04286 0.18181819,0 0.042855,0.04286 -0.042855,0.138964 0,0.181819 0.042855,0.04286 0.12761047,-0.0271 0.18181818,0 0.15332255,0.07666 0.21031381,0.286975 0.36363637,0.363636 0.054208,0.0271 0.1389632,-0.04285 0.1818182,0 0.042855,0.04286 -0.042855,0.138963 0,0.181818 0.042855,0.04285 0.1276104,-0.0271 0.1818182,0 0.076661,0.03833 0.1051569,0.143488 0.1818181,0.181818 0.054208,0.0271 0.1276105,-0.0271 0.1818182,0 0.076661,0.03833 0.1051569,0.143488 0.1818182,0.181818 0.054208,0.0271 0.1276105,-0.0271 0.1818182,0 0.076661,0.03833 0.1051569,0.143488 0.1818182,0.181819 0.054208,0.0271 0.1276104,-0.0271 0.1818181,0 0.076661,0.03833 0.105157,0.143487 0.1818182,0.181818 0.054208,0.0271 0.1276105,-0.0271 0.1818182,0 0.076661,0.03833 0.1051569,0.143487 0.1818182,0.181818 0.054208,0.0271 0.1276105,-0.0271 0.1818182,0 0.076661,0.03833 0.1051569,0.143488 0.1818182,0.181818 0.1084154,0.05421 0.2552209,-0.05421 0.3636363,0 0.076661,0.03833 0.1051569,0.143488 0.1818182,0.181818 0.1084154,0.05421 0.2552209,-0.05421 0.3636364,0 0.076661,0.03833 0.1005066,0.154715 0.1818181,0.181819 0.114992,0.03833 0.2486445,-0.03833 0.3636364,0 0.081312,0.0271 0.1005066,0.154714 0.1818182,0.181818 0.1149919,0.03833 0.2486444,-0.03833 0.3636364,0 0.081311,0.0271 0.1005066,0.154714 0.1818181,0.181818 0.114992,0.03833 0.2460434,-0.0294 0.3636364,0 0.131473,0.03287 0.2350715,0.138963 0.3636364,0.181818 0.057496,0.01916 0.1243222,-0.01917 0.1818181,0 0.1285649,0.04285 0.2321634,0.14895 0.3636364,0.181818 0.239057,0.05976 0.6832822,-0.07527 0.9090909,0 0.081312,0.0271 0.1005066,0.154715 0.1818182,0.181818 0.1724879,0.0575 0.3636364,0 0.5454545,0 0.3636364,0 0.7272728,0 1.0909091,0 0.060606,0 0.1212122,0 0.1818182,0 0.060606,0 0.1389632,0.04285 0.1818182,0 0.04285,-0.04286 -0.042855,-0.138963 0,-0.181818 0.04285,-0.04286 0.138963,0.04285 0.181818,0 0.04285,-0.04286 -0.04285,-0.138963 0,-0.181818 0.04285,-0.04286 0.138963,0.04285 0.181818,0 0.04286,-0.04286 -0.04285,-0.138963 0,-0.181818 0.04286,-0.04285 0.138964,0.04286 0.181819,0 0.04285,-0.04285 0,-0.121212 0,-0.181818 0,-0.06061 0,-0.121212 0,-0.181818 0,-0.06677 0.0073,-0.719957 0,-0.727273 -0.04286,-0.04286 -0.138964,0.04286 -0.181819,0 -0.242424,-0.242424 0.303031,-0.181818 -0.181818,-0.181818 -0.4848483,0 -0.9696968,0 -1.4545453,0 -0.043206,0 -0.6865218,0.02038 -0.7272727,0 -0.076661,-0.03833 -0.1051569,-0.143488 -0.1818182,-0.181819 -0.077651,-0.03883 -0.8372158,0 -0.9090909,0 -0.3030303,0 -0.6060606,0 -0.9090909,0 -0.1212121,0 -0.2424242,0 -0.3636364,0 -0.060606,0 -0.1243222,-0.01917 -0.1818181,0 -0.1285649,0.04285 -0.2350715,0.138964 -0.3636364,0.181819 -0.1149919,0.03833 -0.255221,-0.05421 -0.3636364,0 -0.076661,0.03833 -0.1051569,0.143487 -0.1818182,0.181818 -0.054208,0.0271 -0.1276104,-0.0271 -0.1818181,0 C 4.2103138,51.894843 4.1533226,52.105157 4,52.181818 c -0.054208,0.0271 -0.1389632,-0.04286 -0.1818182,0 -0.042855,0.04286 0.042855,0.138963 0,0.181818 -0.042855,0.04286 -0.1389632,-0.04286 -0.1818182,0 -0.042855,0.04286 0.027104,0.127611 0,0.181819 -0.038331,0.07666 -0.1434875,0.105156 -0.1818181,0.181818 -0.054208,0.108415 0.08571,0.277926 0,0.363636 -0.042855,0.04285 -0.1389633,-0.04286 -0.1818182,0 -0.12,0.12 0.12,0.243636 0,0.363636 -0.042855,0.04285 -0.1389633,-0.04286 -0.1818182,0 -0.03717,0.03717 0.036045,0.473366 0,0.545455 -0.038331,0.07666 -0.1434876,0.105157 -0.1818182,0.181818 -0.049317,0.09863 0.04975,0.677523 0,0.727273 -0.042855,0.04286 -0.1389632,-0.04285 -0.1818182,0 -0.018182,0.01818 -0.018182,0.527273 0,0.545454 0.042855,0.04285 0.1389633,-0.04286 0.1818182,0 0.042855,0.04285 -0.027104,0.127611 0,0.181819 0.1090909,0.218181 0.4363636,0.327272 0.5454546,0.545454 0.027104,0.05421 -0.042855,0.138963 0,0.181818 0.08571,0.08571 0.2779264,-0.08571 0.3636363,0 0.042855,0.04286 -0.042855,0.138964 0,0.181819 0.042855,0.04286 0.1389632,-0.04285 0.1818182,0 0.042855,0.04286 -0.042855,0.138963 0,0.181818 0.042855,0.04286 0.1389632,-0.04285 0.1818182,0 0.042855,0.04286 -0.042855,0.138963 0,0.181818 0.03717,0.03717 0.4733651,-0.03604 0.5454545,0 0.076661,0.03833 0.1051569,0.143487 0.1818182,0.181818 0.1084154,0.05421 0.255221,-0.05421 0.3636364,0 0.076661,0.03833 0.1051569,0.143488 0.1818182,0.181818 0.054208,0.0271 0.1276104,-0.0271 0.1818181,0 0.076661,0.03833 0.1051569,0.143488 0.1818182,0.181818 0.054208,0.0271 0.1276105,-0.0271 0.1818182,0 0.076661,0.03833 0.1051569,0.143488 0.1818182,0.181819 0.1084154,0.05421 0.2552209,-0.05421 0.3636363,0 0.076661,0.03833 0.105157,0.143487 0.1818182,0.181818 0.098634,0.04932 0.6775233,-0.04975 0.7272728,0 0.042855,0.04286 -0.042855,0.138963 0,0.181818 0.042855,0.04286 0.1212121,0 0.1818181,0 0.3030303,0 0.6060606,0 0.9090909,0 0.5454546,0 1.0909091,0 1.6363635,0 0.09508,0 0.679465,0.0239 0.727273,0 0.07666,-0.03833 0.105157,-0.143488 0.181818,-0.181818 0.108416,-0.05421 0.255221,0.05421 0.363636,0 0.07666,-0.03833 0.105157,-0.143488 0.181819,-0.181818 0.05421,-0.0271 0.12761,0.0271 0.181818,0 0.07666,-0.03833 0.105157,-0.143488 0.181818,-0.181819 0.05421,-0.0271 0.138963,0.04285 0.181818,0 0.04285,-0.04286 -0.04285,-0.138963 0,-0.181818 0.08571,-0.08571 0.255221,0.05421 0.363637,0 0.07666,-0.03833 0.105156,-0.143487 0.181818,-0.181818 0.05421,-0.0271 0.138963,0.04285 0.181818,0 0.04285,-0.04286 -0.04285,-0.138963 0,-0.181818 0.04285,-0.04285 0.12761,0.0271 0.181818,0 0.07666,-0.03833 0.105157,-0.143488 0.181818,-0.181818 0.05421,-0.0271 0.138963,0.04286 0.181818,0 0.04286,-0.04285 -0.04285,-0.138963 0,-0.181818 0.04286,-0.04285 0.138964,0.04286 0.181819,0 0.04285,-0.04285 -0.04286,-0.138964 0,-0.181819 0.04285,-0.04286 0.138963,0.04286 0.181818,0 0.04285,-0.04286 -0.0271,-0.12761 0,-0.181818 C 13.856512,56.105157 13.961669,56.076661 14,56 c 0.0271,-0.05421 -0.04285,-0.138963 0,-0.181818 0.04285,-0.04286 0.138963,0.04286 0.181818,0 0.0058,-0.0058 0,-0.501359 0,-0.545455 0,-0.121212 0,-0.242424 0,-0.363636 0,-0.06061 0,-0.242424 0,-0.181818 0,0.121212 0.121212,0.363636 0,0.363636 -0.500666,0 -0.05135,-0.414983 -0.181818,-0.545454 -0.09091,-0.09091 -0.454545,0.09091 -0.545455,0 -0.04285,-0.04285 0.04286,-0.138964 0,-0.181819 -0.04285,-0.04286 -0.121212,0 -0.181818,0 -0.09508,0 -0.679465,-0.0239 -0.727272,0 -0.07666,0.03833 -0.105157,0.143488 -0.181819,0.181819 -0.05421,0.0271 -0.138963,-0.04285 -0.181818,0 -0.04285,0.04286 0,0.121212 0,0.181818 0,0.06061 0,0.121212 0,0.181818 0,0.363636 0,0.727273 0,1.090909 0,0.121212 0,0.242424 0,0.363636 0,0.06061 -0.01916,0.124323 0,0.181819 0.04285,0.128564 0.14895,0.232163 0.181818,0.363636 0.0294,0.117593 -0.03833,0.248644 0,0.363636 0.0271,0.08131 0.154715,0.100507 0.181819,0.181818 0.03833,0.114992 -0.0294,0.246044 0,0.363637 0.03287,0.131473 0.148949,0.232163 0.181818,0.363636 0.0294,0.117593 -0.0294,0.246044 0,0.363637 -0.109587,0.32908 0.294535,0.338149 0.363636,0.545454 0,0.827688 -0.08571,0.0104 0.181818,0.545455 0.05421,0.108415 -0.05421,0.255221 0,0.363636 0.02414,0.04827 0.49718,0.521317 0.545455,0.545455 0.108415,0.05421 0.277926,-0.08571 0.363636,0 0.04285,0.04286 -0.04285,0.138963 0,0.181818 0.04285,0.04286 0.121212,0 0.181818,0 0.484849,0 0.969697,0 1.454546,0 0.06061,0 0.12761,0.0271 0.181818,0 0.07666,-0.03833 0.105157,-0.143488 0.181818,-0.181818 0.108416,-0.05421 0.255221,0.05421 0.363637,0 0.07666,-0.03833 0.105156,-0.143488 0.181818,-0.181819 0.05421,-0.0271 0.138963,0.04286 0.181818,0 0.04285,-0.04286 -0.04285,-0.138963 0,-0.181818 0.04285,-0.04286 0.12761,0.0271 0.181818,0 0.04828,-0.02414 0.521317,-0.49718 0.545455,-0.545454 0.0271,-0.05421 -0.04285,-0.138964 0,-0.181819 0.04285,-0.04286 0.12761,0.0271 0.181818,0 0.07666,-0.03833 0.121212,-0.121212 0.181818,-0.181818 0.06061,-0.06061 0.143488,-0.105157 0.181818,-0.181818 0.0271,-0.05421 -0.0271,-0.12761 0,-0.181818 0.109091,-0.218182 0.436364,-0.327273 0.545455,-0.545455 0.0271,-0.05421 -0.01917,-0.124322 0,-0.181818 0.438995,-1.316985 -0.05242,0.286656 0.363636,-0.545454 0.0271,-0.05421 -0.01917,-0.124323 0,-0.181819 0.04285,-0.128564 0.106646,-0.250877 0.181818,-0.363636 0.04754,-0.07132 0.154715,-0.100507 0.181818,-0.181818 0.03833,-0.114992 -0.03833,-0.248645 0,-0.363636 0.05421,-0.162624 0.309429,-0.201014 0.363637,-0.363637 0.03833,-0.114992 -0.03833,-0.248644 0,-0.363636 0.05421,-0.162623 0.309428,-0.201013 0.363636,-0.363637 0.03833,-0.114991 -0.03833,-0.248644 0,-0.363636 0.0271,-0.08131 0.143488,-0.105157 0.181818,-0.181818 0.0271,-0.05421 -0.01917,-0.124322 0,-0.181818 0.04285,-0.128565 0.14895,-0.232164 0.181819,-0.363637 0.0294,-0.117593 -0.03833,-0.248644 0,-0.363636 0.0271,-0.08131 0.154714,-0.100507 0.181818,-0.181818 0.03833,-0.114992 -0.0294,-0.246044 0,-0.363637 0.03287,-0.131473 0.14895,-0.232163 0.181818,-0.363636 0.0294,-0.117593 -0.0294,-0.246043 0,-0.363636 0.03287,-0.131473 0.14895,-0.232164 0.181818,-0.363637 0.0294,-0.117593 -0.03833,-0.248644 0,-0.363636 0.0271,-0.08131 0.154714,-0.100507 0.181818,-0.181818 0.03833,-0.114992 -0.0294,-0.246044 0,-0.363637 0.03287,-0.131473 0.14895,-0.232163 0.181818,-0.363636 0.0294,-0.117593 0,-0.242424 0,-0.363636 0,-0.303031 0,-0.606061 0,-0.909091 0,-0.06061 0,-0.121212 0,-0.181818 0,-0.06061 0.04285,-0.138964 0,-0.181819 -0.04285,-0.04286 -0.138963,0.04285 -0.181818,0 -0.04285,-0.04286 0.04285,-0.138963 0,-0.181818 -0.01818,-0.01818 -0.527272,-0.01818 -0.545454,0 -0.04285,0.04285 0.04285,0.138963 0,0.181818 -0.376189,0.376189 0.0147,-0.574865 -0.363637,0.181819 -0.02767,0.05533 0,0.463571 0,0.545454 0,0.424243 0,0.848485 0,1.272727 0,0.303031 0,0.606061 0,0.909091 0,0.06061 0,0.121212 0,0.181819 0,0.06061 -0.0271,0.12761 0,0.181818 0.03833,0.07666 0.143488,0.105157 0.181819,0.181818 0.05631,0.11262 -0.0538,0.673476 0,0.727273 0.04285,0.04286 0.138963,-0.04286 0.181818,0 0.04285,0.04286 0,0.121212 0,0.181818 0,0.06061 0,0.121212 0,0.181818 0,0.06061 0,0.121212 0,0.181818 0,0.06061 -0.04285,0.138963 0,0.181818 0.04285,0.04286 0.138963,-0.04286 0.181818,0 0.08571,0.08571 -0.08571,0.277927 0,0.363637 0.04285,0.04286 0.12761,-0.0271 0.181818,0 0.07666,0.03833 0.105157,0.143487 0.181818,0.181818 0.05421,0.0271 0.124322,-0.01916 0.181818,0 0.128565,0.04286 0.235072,0.138963 0.363637,0.181818 0.0575,0.01916 0.124322,-0.01917 0.181818,0 0.128565,0.04285 0.232163,0.14895 0.363636,0.181818 0.117593,0.0294 0.242425,0 0.363637,0 0.363636,0 0.727272,0 1.090909,0 0.121212,0 0.248644,-0.03833 0.363636,0 0.08131,0.0271 0.100507,0.154715 0.181818,0.181818 0.118032,0.03934 1.107569,0 1.272728,0 0.363636,0 0.727272,0 1.090909,0 0.121212,0 0.242424,0 0.363636,0 0.06061,0 0.124322,0.01917 0.181818,0 0.128565,-0.04286 0.232164,-0.148949 0.363637,-0.181818 0.176389,-0.0441 0.372966,0.0575 0.545454,0 0.128565,-0.04286 0.232164,-0.14895 0.363637,-0.181818 0.117593,-0.0294 0.248644,0.03833 0.363636,0 0.08131,-0.0271 0.100507,-0.154714 0.181818,-0.181818 0.114992,-0.03833 0.248645,0.03833 0.363636,0 0.162624,-0.05421 0.210314,-0.286975 0.363637,-0.363636 0.05421,-0.0271 0.121212,0 0.181818,0 0.121212,-0.06061 0.250878,-0.106646 0.363636,-0.181819 0.14263,-0.09509 0.221007,-0.268549 0.363637,-0.363636 0.112759,-0.07517 0.250877,-0.106646 0.363636,-0.181818 0.14263,-0.09509 0.221007,-0.26855 0.363636,-0.363637 0.112759,-0.07517 0.26781,-0.08599 0.363637,-0.181818 0.09583,-0.09583 0.106645,-0.250877 0.181818,-0.363636 0.301507,-0.452261 0.04178,-0.02089 0.363636,-0.181818 0.04828,-0.02414 0.521318,-0.49718 0.545455,-0.545455 0.0271,-0.05421 -0.0271,-0.12761 0,-0.181818 0.109091,-0.218182 0.436364,-0.327273 0.545454,-0.545455 0.0271,-0.05421 0,-0.121212 0,-0.181818 0.06061,-0.06061 0.134275,-0.110503 0.181819,-0.181818 0.400575,-0.09156 0.09611,-0.374035 0.181818,-0.545454 0.03833,-0.07666 0.143487,-0.105157 0.181818,-0.181819 0.0271,-0.05421 -0.04286,-0.138963 0,-0.181818 0.04286,-0.04286 0.138963,0.04286 0.181818,0 0.04286,-0.04286 0,-0.121212 0,-0.181818 0,-0.06061 0.04286,-0.138963 0,-0.181818 C 34.138963,49.775327 34,49.757576 34,49.818182 34,49.903892 34.267528,50 34.181818,50 c -0.135519,0 -0.235071,-0.138963 -0.363636,-0.181818 -0.0234,-0.0078 -0.530397,-0.0075 -0.545455,0 -0.07666,0.03833 -0.105157,0.143487 -0.181818,0.181818 -0.05421,0.0271 -0.12761,-0.0271 -0.181818,0 -0.07666,0.03833 -0.105157,0.143488 -0.181818,0.181818 -0.07209,0.03605 -0.508285,-0.03717 -0.545455,0 -0.04286,0.04286 0.04286,0.138963 0,0.181818 -0.08571,0.08571 -0.255221,-0.05421 -0.363636,0 -0.04828,0.02414 -0.521317,0.49718 -0.545455,0.545455 -0.05421,0.108415 0.05421,0.255221 0,0.363636 -0.03833,0.07666 -0.143487,0.105157 -0.181818,0.181818 -0.05714,0.114277 0.05714,0.612996 0,0.727273 -0.03833,0.07666 -0.143487,0.105157 -0.181818,0.181818 -0.02351,0.04701 0,0.962036 0,1.090909 0,0.126462 -0.03288,0.84334 0,0.909091 0.03833,0.07666 0.143487,0.105157 0.181818,0.181819 0.03605,0.07209 -0.03717,0.508284 0,0.545454 0.04285,0.04285 0.138963,-0.04286 0.181818,0 0.04285,0.04285 -0.04285,0.138963 0,0.181818 0.04285,0.04285 0.138963,-0.04286 0.181818,0 0.04285,0.04285 -0.04285,0.138963 0,0.181818 0.04285,0.04285 0.138964,-0.04286 0.181819,0 0.04285,0.04285 -0.04285,0.138964 0,0.181819 0.04285,0.04286 0.138963,-0.04286 0.181818,0 0.04285,0.04286 -0.04285,0.138963 0,0.181818 0.04285,0.04286 0.12761,-0.0271 0.181818,0 0.121212,0.06061 0.242424,0.30303 0.363636,0.363636 0.108416,0.05421 0.255221,-0.05421 0.363637,0 0.07666,0.03833 0.105157,0.143488 0.181818,0.181818 0.05421,0.0271 0.12761,-0.0271 0.181818,0 0.07666,0.03833 0.105157,0.143488 0.181818,0.181819 0.05421,0.0271 0.127611,-0.0271 0.181818,0 0.07666,0.03833 0.100507,0.154714 0.181819,0.181818 8.24e-4,2.74e-4 0.545281,-1.74e-4 0.545454,0 0.04286,0.04286 -0.04286,0.138963 0,0.181818 0.08571,0.08571 0.255221,-0.05421 0.363637,0 0.07666,0.03833 0.105156,0.143487 0.181818,0.181818 0.06575,0.03288 0.782629,0 0.909091,0 0.363636,0 0.727272,0 1.090909,0 0.121212,0 0.242424,0 0.363636,0 0.06061,0 0.124322,0.01916 0.181818,0 0.128565,-0.04286 0.235072,-0.138963 0.363637,-0.181818 0.193202,-0.0644 0.53407,0.0644 0.727272,0 0.08131,-0.0271 0.100507,-0.154714 0.181819,-0.181818 0.150585,-0.05019 0.793465,0.05781 0.90909,0 0.07666,-0.03833 0.105157,-0.143488 0.181819,-0.181818 0.108415,-0.05421 0.255221,0.05421 0.363636,0 0.07666,-0.03833 0.105157,-0.143488 0.181818,-0.181819 0.108416,-0.05421 0.255221,0.05421 0.363637,0 0.07666,-0.03833 0.121212,-0.121212 0.181818,-0.181818 0.06061,-0.06061 0.143487,-0.105157 0.181818,-0.181818 0.0271,-0.05421 -0.0271,-0.12761 0,-0.181818 0.03833,-0.07666 0.143487,-0.105157 0.181818,-0.181818 0.0271,-0.05421 -0.01917,-0.124323 0,-0.181819 0.04285,-0.128564 0.138963,-0.235071 0.181818,-0.363636 0.05455,-0.163636 -0.05455,-0.381818 0,-0.545454 0.0271,-0.08131 0.143488,-0.105157 0.181818,-0.181819 0.04807,-0.09614 -0.02215,-0.638692 0,-0.727272 0.03287,-0.131473 0.14895,-0.232164 0.181819,-0.363637 0.0294,-0.117593 -0.03833,-0.248644 0,-0.363636 0.0271,-0.08131 0.154714,-0.100507 0.181818,-0.181818 0.0502,-0.150586 -0.05781,-0.793465 0,-0.909091 0.03833,-0.07666 0.154714,-0.100507 0.181818,-0.181818 0.05605,-0.168139 -0.05989,-0.971121 0,-1.090909 0.03833,-0.07666 0.143488,-0.105157 0.181818,-0.181819 0.01015,-0.02029 0.01015,-0.888797 0,-0.909091 C 42.143488,49.377884 42.038331,49.349389 42,49.272727 c 0,-0.484848 0.06061,0.06061 -0.181818,-0.181818 -0.04286,-0.04286 0.04286,-0.138963 0,-0.181818 -0.08571,-0.08571 -0.255221,0.05421 -0.363637,0 -0.07666,-0.03833 -0.105156,-0.143488 -0.181818,-0.181818 -0.108415,-0.05421 -0.255221,0.05421 -0.363636,0 -0.07666,-0.03833 -0.105157,-0.143488 -0.181818,-0.181818 -0.05533,-0.02767 -0.463572,0 -0.545455,0 -0.06061,0 -0.121212,0 -0.181818,0 -0.06061,0 -0.138963,-0.04285 -0.181818,0 -0.04286,0.04286 0.04286,0.138963 0,0.181818 -0.04286,0.04286 -0.138963,-0.04285 -0.181818,0 -0.04286,0.04286 0,0.121212 0,0.181818 0,0.06061 0,0.121212 0,0.181818 0,0.157561 -0.03511,0.62195 0,0.727273 0.04286,0.128565 0.14895,0.232163 0.181818,0.363636 0.0294,0.117593 -0.05421,0.255221 0,0.363637 0.0271,0.05421 0.138963,-0.04285 0.181818,0 0.04286,0.04286 -0.0271,0.12761 0,0.181818 0.03833,0.07666 0.143488,0.105157 0.181818,0.181818 0.05421,0.108415 -0.05421,0.255221 0,0.363636 0.03833,0.07666 0.143488,0.105157 0.181818,0.181818 0.125396,0.250793 -0.220191,0.162632 0.181819,0.363637 0.250792,0.125396 0.162631,-0.220192 0.363636,0.181818 0.0271,0.05421 -0.04285,0.138963 0,0.181818 0.709588,0.709588 0.09764,-0.04209 0.545454,0.181818 0.145455,0.07273 0.218182,0.290909 0.363637,0.363637 0.05421,0.0271 0.124322,-0.01917 0.181818,0 0.128565,0.04286 0.235071,0.138963 0.363636,0.181818 0.0575,0.01917 0.127611,-0.0271 0.181819,0 0.07666,0.03833 0.105156,0.143487 0.181818,0.181818 0.05421,0.0271 0.121212,0 0.181818,0 0.121212,0 0.248644,-0.03833 0.363636,0 0.08131,0.0271 0.105157,0.143488 0.181818,0.181818 0.119788,0.05989 0.922771,-0.05605 1.09091,0 0.08131,0.0271 0.100506,0.154715 0.181818,0.181818 0.172488,0.0575 0.363636,0 0.545454,0 0.129984,0 0.997839,0.03102 1.090909,0 0.08131,-0.0271 0.105157,-0.143487 0.181819,-0.181818 0.05421,-0.0271 0.121212,0 0.181818,0 0.06061,-0.06061 0.105157,-0.143487 0.181818,-0.181818 0.05421,-0.0271 0.12761,0.0271 0.181818,0 0.09711,-0.04855 0.449734,-0.449734 0.545455,-0.545454 0.30303,-0.303031 0.60606,-0.606061 0.909091,-0.909091 0.06061,-0.06061 0.134274,-0.110504 0.181818,-0.181819 0.07517,-0.112758 0.106645,-0.250877 0.181818,-0.363636 0.04754,-0.07132 0.134275,-0.110503 0.181818,-0.181818 0.150345,-0.225518 0.213291,-0.501755 0.363636,-0.727273 0.04754,-0.07131 0.134275,-0.110503 0.181819,-0.181818 0.07517,-0.112759 0.08599,-0.26781 0.181818,-0.363636 0.09583,-0.09583 0.26781,-0.08599 0.363636,-0.181819 0.01165,-0.01165 0.341058,-0.693405 0.363637,-0.727272 0.04754,-0.07131 0.134274,-0.110503 0.181818,-0.181818 0.07517,-0.112759 0.106645,-0.250878 0.181818,-0.363637 0.27737,-0.416055 0.143922,0.113689 0.363636,-0.545454 0.04169,-0.125061 -0.05364,-0.438179 0,-0.545455 0.03833,-0.07666 0.143488,-0.105157 0.181818,-0.181818 0.02558,-0.05115 0,-1.133741 0,-1.272727 0,-0.121212 0,-0.242425 0,-0.363637 0,-0.06061 0.01917,-0.124322 0,-0.181818 -0.04286,-0.128565 -0.138963,-0.235071 -0.181818,-0.363636 -0.01917,-0.0575 0.0271,-0.127611 0,-0.181818 C 51.24859,44.49718 50.775547,44.024137 50.727273,44 c -0.108416,-0.05421 -0.255221,0.05421 -0.363637,0 -0.07666,-0.03833 -0.105157,-0.143488 -0.181818,-0.181818 -0.05421,-0.0271 -0.121212,0 -0.181818,0 -0.06061,0 -0.121212,0 -0.181818,0 -0.0441,0 -0.539607,-0.0058 -0.545455,0 -0.04286,0.04286 0.0271,0.12761 0,0.181818 -0.03833,0.07666 -0.143487,0.105157 -0.181818,0.181818 -0.0246,0.0492 0,1.012591 0,1.090909 0,0.363637 0,0.727273 0,1.090909 0,0.121212 -0.0294,0.246044 0,0.363637 0.03287,0.131473 0.14895,0.232163 0.181818,0.363636 0.0441,0.17639 -0.0575,0.372967 0,0.545455 0.04285,0.128565 0.14895,0.232163 0.181818,0.363636 0.157441,0.629763 -0.230231,0.109198 0.181819,0.727273 0.04754,0.07132 0.121212,0.121212 0.181818,0.181818 0.121212,0.121212 0.242424,0.242424 0.363636,0.363636 0.06061,0.06061 0.110503,0.134275 0.181818,0.181818 0.225518,0.150346 0.501755,0.213292 0.727273,0.363637 0.07131,0.04754 0.110503,0.134275 0.181818,0.181818 0.112759,0.07517 0.250878,0.106646 0.363637,0.181818 0.07131,0.04754 0.105157,0.143488 0.181818,0.181818 0.05421,0.0271 0.121212,0 0.181818,0"
       id="path3866"
       inkscape:connector-curvature="0" />
  </g>
</svg>
